<?xml version="1.0" standalone="no"?>
<!DOCTYPE svg PUBLIC "-//W3C//DTD SVG 20010904//EN"
 "http://www.w3.org/TR/2001/REC-SVG-20010904/DTD/svg10.dtd">
<svg version="1.0" xmlns="http://www.w3.org/2000/svg"
 width="260.000000pt" height="260.000000pt" viewBox="0 0 260.000000 260.000000"
 preserveAspectRatio="xMidYMid meet">
<metadata>
Created by potrace 1.14, written by Peter Selinger 2001-2017
</metadata>
<g transform="translate(0.000000,260.000000) scale(0.100000,-0.100000)"
fill="#000000" stroke="none">
<path d="M1241 2543 c-8 -14 -10 -15 -11 -3 0 13 -1 13 -10 0 -8 -13 -10 -13
-10 0 0 11 -3 11 -12 2 -16 -16 -31 -15 -22 1 5 9 4 9 -6 0 -7 -6 -19 -9 -28
-6 -11 5 -13 3 -7 -8 8 -12 6 -12 -8 0 -10 8 -17 9 -17 3 0 -6 -9 -9 -20 -7
-11 2 -20 0 -20 -5 0 -5 -7 -6 -17 -3 -12 5 -14 3 -8 -8 8 -12 6 -12 -8 0 -13
10 -20 11 -30 2 -8 -6 -17 -8 -20 -4 -4 3 -7 0 -7 -8 0 -11 -2 -11 -10 1 -7
11 -10 11 -10 2 0 -7 -5 -10 -10 -7 -6 3 -18 -1 -27 -10 -11 -12 -18 -13 -23
-5 -5 8 -9 7 -13 -4 -4 -9 -14 -13 -26 -11 -11 2 -31 -5 -46 -16 -14 -11 -25
-17 -25 -12 0 4 -7 0 -15 -11 -7 -10 -18 -15 -23 -12 -6 3 -12 -1 -16 -9 -3
-8 -14 -15 -25 -15 -11 0 -23 -5 -26 -11 -4 -6 -14 -8 -22 -5 -8 3 -12 2 -9
-3 8 -12 -28 -42 -52 -44 -11 0 -19 -4 -16 -8 2 -4 -5 -10 -16 -14 -11 -4 -18
-11 -15 -16 4 -5 -1 -9 -9 -9 -9 0 -16 -5 -16 -10 0 -6 -6 -9 -12 -8 -7 2 -12
-2 -11 -9 2 -7 -4 -10 -13 -6 -9 3 -14 0 -12 -8 2 -8 -3 -13 -11 -11 -8 2 -11
-3 -8 -12 4 -9 2 -15 -3 -13 -13 3 -111 -103 -104 -114 3 -5 -3 -6 -12 -2 -12
4 -15 3 -10 -5 4 -7 2 -12 -5 -12 -7 0 -9 -3 -6 -7 4 -3 -4 -16 -18 -28 -13
-13 -21 -26 -18 -29 4 -3 -2 -6 -13 -7 -10 0 -14 -3 -7 -6 10 -3 10 -7 0 -18
-7 -7 -16 -10 -21 -7 -5 3 -6 0 -3 -6 9 -13 -2 -44 -13 -37 -4 2 -12 -7 -19
-21 -9 -20 -9 -24 1 -18 7 4 4 -3 -7 -16 -11 -13 -14 -20 -6 -15 10 6 12 4 5
-6 -14 -23 -13 -39 2 -39 9 0 12 5 9 10 -3 6 -2 10 4 10 5 0 11 -5 13 -12 5
-13 98 -18 98 -5 0 4 9 3 20 -3 14 -8 20 -8 20 0 0 6 5 8 12 4 15 -10 102 -5
106 5 1 5 10 17 18 27 14 18 14 17 4 -6 -11 -24 -10 -24 4 -6 9 11 16 27 16
36 0 9 9 26 19 37 11 12 17 24 13 27 -3 4 2 4 13 0 14 -6 17 -4 12 9 -4 11 1
18 14 22 10 4 17 10 14 15 -3 5 4 11 14 15 11 3 23 15 26 26 4 10 11 17 16 14
5 -4 9 1 9 9 0 14 12 20 33 17 4 0 7 7 7 16 0 15 2 16 10 3 9 -13 14 -7 11 13
0 4 6 7 14 7 8 0 15 6 15 14 0 10 7 12 22 8 14 -3 19 -2 14 6 -5 8 2 12 19 12
14 0 23 4 20 10 -3 5 6 12 20 16 13 3 22 10 19 15 -3 5 2 6 10 3 9 -3 16 -1
16 6 0 6 5 8 10 5 6 -3 10 -1 10 5 0 6 5 8 10 5 6 -3 10 -1 10 5 0 7 7 9 16 6
8 -3 12 -2 9 4 -3 6 5 11 19 11 35 2 39 3 55 13 8 5 16 4 22 -5 7 -11 9 -9 9
6 0 14 3 16 11 8 9 -9 16 -8 27 4 11 11 17 12 20 4 3 -8 9 -6 18 6 7 10 14 13
14 7 0 -6 10 -10 23 -8 59 9 157 9 161 -1 2 -5 5 -4 5 4 1 11 4 11 16 1 9 -8
15 -8 15 -2 0 7 10 8 29 2 19 -5 33 -4 40 3 8 8 11 8 11 0 0 -6 9 -9 22 -5 16
4 19 2 13 -8 -6 -10 -4 -12 8 -7 9 3 18 1 21 -6 3 -9 5 -8 5 1 1 9 6 10 20 3
10 -6 21 -7 25 -4 3 3 6 -1 6 -10 0 -9 5 -17 10 -17 6 0 10 5 10 11 0 8 4 8
13 0 10 -8 17 -7 26 2 10 9 11 8 6 -5 -5 -12 -2 -18 9 -19 35 -3 41 -5 39 -16
-1 -5 9 -9 23 -7 20 2 24 -1 19 -14 -3 -9 -3 -13 1 -9 4 4 14 1 22 -6 13 -10
14 -9 7 2 -5 10 -4 12 3 7 7 -4 12 -14 12 -22 0 -8 5 -14 11 -14 5 0 7 6 4 13
-4 6 0 4 8 -6 11 -14 16 -15 20 -5 4 8 6 7 6 -4 1 -10 8 -18 16 -18 8 0 15 -5
15 -12 0 -6 3 -9 6 -6 7 7 60 -44 56 -55 -1 -5 2 -6 7 -3 5 4 21 -5 35 -19 14
-14 30 -25 36 -25 5 0 10 -5 10 -11 0 -5 -6 -7 -12 -4 -7 4 -3 -2 9 -13 12
-11 19 -23 15 -27 -4 -5 1 -5 10 -2 10 3 20 1 24 -5 5 -7 2 -8 -7 -4 -8 4 -6
1 3 -7 10 -8 19 -24 21 -35 2 -12 7 -25 12 -29 4 -5 5 -1 0 7 -4 8 2 5 14 -7
11 -12 21 -26 21 -32 0 -12 84 -17 200 -11 92 5 95 6 98 30 2 15 -6 34 -18 47
-11 12 -20 27 -20 33 0 6 -5 8 -12 4 -7 -5 -8 -3 -4 5 5 7 0 19 -10 27 -11 9
-13 13 -4 9 8 -4 5 2 -7 13 -12 11 -19 22 -16 26 4 3 -2 6 -13 7 -10 0 -13 3
-7 6 14 5 3 19 -32 39 -10 6 -21 17 -23 25 -2 8 3 5 12 -6 8 -11 16 -16 16
-12 0 4 -15 22 -32 40 -18 18 -42 45 -53 60 -11 15 -25 27 -31 27 -12 0 -51
39 -46 47 2 3 0 8 -4 11 -4 4 -4 1 0 -5 4 -7 2 -13 -3 -13 -6 0 -11 7 -11 15
0 9 -8 19 -17 22 -10 4 -24 13 -31 20 -8 7 -19 10 -25 6 -7 -4 -8 0 -4 11 4 9
3 14 -2 11 -5 -3 -22 6 -37 20 -29 27 -42 33 -28 12 5 -7 -2 0 -16 16 -21 23
-28 26 -39 15 -10 -10 -12 -10 -7 0 5 8 0 12 -13 12 -11 0 -26 8 -33 18 -12
15 -21 20 -53 25 -5 1 -16 8 -23 14 -7 7 -25 16 -40 20 -15 3 -30 11 -34 17
-4 6 -17 11 -30 11 -13 0 -29 4 -35 8 -7 5 -13 5 -13 0 0 -4 -5 -1 -10 7 -8
13 -10 12 -10 -3 0 -10 -5 -15 -10 -12 -6 4 -8 11 -5 16 3 5 -1 6 -10 3 -8 -4
-21 -2 -28 3 -12 10 -37 14 -94 16 -18 1 -33 6 -33 12 0 5 -5 3 -10 -5 -8 -13
-10 -13 -10 0 0 10 -3 11 -11 3 -11 -11 -52 -6 -45 6 9 14 -80 5 -92 -9 -12
-13 -13 -13 -8 3 3 9 3 17 1 17 -2 0 -9 -8 -14 -17z"/>
<path d="M1870 2410 c0 -5 5 -10 11 -10 5 0 7 5 4 10 -3 6 -8 10 -11 10 -2 0
-4 -4 -4 -10z"/>
<path d="M0 1538 c0 -43 4 -78 9 -78 5 0 17 -3 27 -7 12 -4 15 -3 10 6 -9 14
16 11 26 -4 5 -6 8 -4 8 5 0 13 2 13 9 1 8 -12 12 -12 25 -2 9 8 16 9 16 3 0
-11 25 -10 36 1 4 3 15 2 25 -3 11 -7 20 -7 24 0 3 6 15 6 29 0 13 -5 26 -7
27 -5 2 2 4 -56 4 -128 0 -77 -4 -135 -10 -139 -7 -5 -7 -8 0 -8 6 0 10 -35
10 -84 0 -53 -4 -82 -10 -79 -5 2 -1 -2 9 -11 10 -8 24 -12 30 -9 17 11 46 11
46 0 0 -5 5 -5 13 1 7 6 18 7 26 3 16 -10 53 -2 45 10 -3 5 1 9 8 9 10 0 10 2
-1 9 -9 6 -10 11 -2 15 15 10 14 29 -1 20 -7 -4 -4 3 6 15 19 21 19 21 1 15
-14 -6 -16 -4 -9 7 13 21 15 49 3 49 -6 0 -7 5 -2 13 11 18 12 37 2 37 -6 0
-7 5 -4 10 4 6 12 7 18 3 7 -4 6 0 -2 10 -7 9 -10 17 -5 17 5 0 2 5 -6 10 -8
5 -10 10 -3 10 12 0 12 17 0 37 -4 6 -2 15 4 19 8 5 9 3 4 -6 -5 -9 -4 -11 4
-6 9 6 9 11 0 22 -6 8 -8 14 -3 14 5 0 2 5 -6 10 -13 9 -13 10 0 10 13 0 13 1
0 10 -8 5 -10 10 -3 10 12 0 12 17 0 38 -5 7 -3 12 3 12 6 0 8 5 5 10 -3 6 -1
11 4 11 12 2 26 5 39 9 4 1 12 1 17 0 37 -7 84 -6 78 3 -3 6 -1 7 5 3 20 -12
102 -13 110 -2 10 17 9 66 -3 66 -5 0 -4 4 4 9 13 8 13 12 0 27 -9 11 -9 15
-1 10 6 -4 12 -2 12 3 0 11 -5 13 -37 14 -10 1 -21 6 -25 12 -5 6 -8 5 -8 -4
0 -10 -3 -11 -14 -2 -10 9 -16 9 -21 1 -4 -6 -12 -7 -18 -2 -11 7 -29 8 -42 2
-13 -6 -31 -5 -42 2 -6 5 -14 4 -18 -2 -4 -6 -12 -7 -18 -3 -11 7 -33 9 -47 3
-16 -6 -50 -5 -50 1 0 4 -10 6 -22 4 -60 -11 -98 -11 -101 -2 -2 7 -9 7 -17 2
-20 -12 -50 -14 -56 -3 -3 5 -12 4 -20 -3 -8 -6 -14 -7 -14 -2 0 5 -9 9 -20 9
-11 0 -20 -3 -20 -6 0 -4 -7 -7 -15 -7 -8 0 -15 4 -15 9 0 5 -6 6 -12 1 -18
-11 -42 -10 -50 2 -4 6 -8 -25 -8 -67z"/>
<path d="M855 1602 c-4 -4 -23 -7 -43 -7 l-37 0 0 -133 c0 -72 -4 -132 -8
-132 -5 0 -5 -5 -1 -11 9 -16 9 -122 0 -137 -4 -7 -3 -12 2 -12 7 0 8 -33 2
-50 -1 -3 -1 -9 0 -15 7 -37 6 -75 -2 -75 -6 0 -5 -6 2 -15 7 -8 16 -12 21 -9
5 3 9 -1 9 -8 0 -8 3 -9 8 -3 8 12 32 13 50 2 6 -5 12 -4 12 1 0 13 33 10 42
-3 5 -6 8 -5 8 3 0 7 4 11 9 7 5 -3 13 0 17 6 3 6 0 15 -7 20 -12 7 -12 9 0 9
10 0 12 11 8 45 -5 34 -3 44 6 39 9 -5 8 -3 0 7 -16 17 -17 43 -1 33 7 -5 8
-3 2 7 -5 8 -10 25 -12 37 -2 17 1 22 10 16 10 -6 10 -4 -1 9 -7 9 -10 17 -7
17 4 0 2 10 -5 22 -10 19 -9 20 7 14 15 -6 16 -4 7 5 -6 6 -9 18 -6 27 5 11 2
13 -8 7 -11 -6 -11 -5 -2 5 6 7 9 19 6 28 -5 11 -2 13 6 7 10 -6 11 -3 2 14
-10 17 -9 21 4 21 8 0 15 -5 15 -11 0 -5 4 -8 8 -5 4 2 9 -5 9 -17 1 -12 9
-27 17 -33 9 -6 13 -14 9 -17 -3 -4 -1 -7 6 -7 7 0 10 -4 7 -9 -3 -5 1 -11 9
-15 8 -3 12 -12 9 -21 -4 -9 0 -15 9 -15 10 0 15 -7 12 -20 -2 -11 1 -20 6
-20 5 0 12 -8 16 -17 3 -10 14 -29 24 -43 9 -14 18 -29 19 -35 1 -5 6 -9 12
-7 5 1 8 -8 6 -20 -2 -15 2 -22 10 -20 7 1 12 -3 11 -10 -4 -30 3 -40 34 -51
17 -6 37 -10 42 -8 6 2 16 4 23 4 6 0 12 5 12 11 0 5 7 1 15 -10 8 -11 15 -14
15 -6 0 6 7 12 15 12 8 0 14 3 13 8 -4 12 34 82 44 82 5 0 7 4 3 9 -3 5 2 16
10 24 8 9 15 23 15 32 0 12 5 15 16 11 14 -5 15 -4 4 9 -10 12 -10 15 2 15 7
0 14 10 15 22 1 12 9 26 18 30 8 5 13 13 10 19 -4 5 0 16 7 24 26 29 38 45 41
52 1 5 5 7 9 6 4 -2 5 4 2 11 -3 8 4 19 16 26 17 9 19 14 9 26 -8 10 -8 14 0
14 6 0 11 -3 12 -7 0 -5 2 -23 3 -40 2 -18 -1 -33 -6 -33 -5 0 -6 -6 -1 -12
12 -19 12 -108 -1 -108 -6 0 -5 -5 2 -12 16 -16 15 -31 0 -22 -9 5 -9 2 1 -9
11 -14 11 -17 0 -17 -11 0 -11 -2 1 -10 13 -9 13 -10 0 -10 -13 0 -13 -1 0
-10 13 -9 13 -10 0 -10 -13 0 -13 -1 0 -10 11 -7 11 -10 2 -10 -10 0 -10 -5
-1 -22 10 -18 9 -20 -4 -15 -11 4 -14 2 -10 -8 3 -8 10 -12 15 -9 6 4 5 -2 -1
-14 -8 -15 -8 -23 1 -28 7 -5 9 -2 4 7 -4 8 1 4 11 -9 10 -13 22 -20 26 -16
11 12 56 13 63 3 4 -6 14 -3 27 8 11 10 18 13 14 7 -3 -6 1 -11 9 -11 8 0 13
6 10 13 -2 6 -2 15 2 18 10 10 10 116 0 116 -5 0 -6 5 -2 12 12 19 13 79 1 71
-6 -4 -7 -1 -3 6 5 7 10 26 13 43 3 22 1 28 -8 23 -8 -6 -10 -4 -4 6 12 18 13
259 2 259 -5 0 -4 6 2 13 8 11 6 13 -12 12 -12 -1 -28 2 -35 8 -8 7 -16 7 -20
1 -11 -14 -42 -16 -42 -2 0 8 -3 9 -8 3 -4 -6 -16 -11 -27 -11 -11 0 -23 5
-27 11 -5 7 -11 7 -15 0 -10 -13 -56 -14 -65 -1 -4 6 -10 4 -14 -7 -3 -9 -11
-14 -17 -10 -5 3 -7 1 -3 -5 3 -6 0 -17 -8 -25 -8 -8 -12 -18 -8 -22 4 -3 -1
-13 -12 -20 -10 -8 -15 -18 -12 -23 3 -5 -1 -15 -9 -22 -8 -7 -12 -16 -9 -21
3 -5 -2 -12 -10 -15 -9 -3 -14 -10 -11 -14 3 -5 -1 -14 -8 -22 -15 -15 -31
-49 -29 -60 1 -5 -4 -8 -12 -8 -10 0 -13 -7 -11 -20 2 -11 0 -18 -4 -15 -8 4
-24 -31 -22 -47 1 -5 -4 -8 -10 -8 -5 0 -8 -4 -5 -9 3 -5 -1 -11 -9 -15 -14
-5 -20 6 -15 29 1 5 -1 7 -5 3 -10 -10 -33 15 -28 29 3 7 -1 13 -8 13 -7 0
-10 3 -6 6 9 9 -16 33 -28 26 -5 -3 -4 1 3 10 10 13 10 19 -2 31 -8 8 -12 17
-9 21 4 3 1 6 -6 6 -7 0 -9 5 -6 10 3 6 1 10 -6 10 -7 0 -10 3 -6 6 3 3 -3 15
-14 27 -10 11 -19 29 -19 39 0 11 -4 16 -10 13 -5 -3 -10 3 -10 14 0 12 -5 21
-11 21 -5 0 -7 5 -4 10 3 6 -1 13 -10 16 -11 5 -13 10 -5 19 14 17 3 22 -38
20 -18 -1 -35 2 -38 6 -3 5 -13 5 -22 1 -15 -7 -57 -9 -64 -2 -8 6 -38 7 -43
2z"/>
<path d="M1930 1583 c-7 -16 -15 -23 -17 -15 -3 6 -9 12 -14 12 -6 0 -7 -4 -4
-10 3 -5 -1 -10 -9 -10 -8 0 -18 -9 -21 -20 -3 -11 -12 -20 -19 -20 -9 0 -13
-14 -12 -45 1 -25 -3 -45 -9 -45 -7 0 -7 -3 0 -8 6 -4 10 -25 10 -47 0 -43 15
-86 27 -79 5 3 8 -2 8 -11 0 -9 5 -13 10 -10 6 3 10 1 10 -5 0 -6 5 -8 12 -4
7 5 9 2 6 -7 -4 -11 3 -14 33 -11 21 2 51 -3 69 -11 19 -10 28 -11 23 -4 -4 7
0 6 10 -2 11 -8 17 -9 17 -3 0 6 6 9 14 6 23 -9 266 -10 266 -1 0 4 10 2 23
-5 12 -7 24 -12 27 -11 3 1 5 -13 5 -31 -1 -32 -29 -75 -42 -63 -3 4 -14 2
-24 -4 -11 -5 -19 -6 -19 -2 0 12 -94 10 -102 -2 -5 -7 -10 -7 -15 0 -10 13
-93 13 -93 1 0 -6 -5 -5 -12 2 -8 8 -17 8 -32 0 -12 -6 -18 -7 -14 -3 5 5 -1
14 -11 22 -12 8 -18 21 -16 34 2 11 -2 22 -10 25 -27 11 -50 11 -62 1 -9 -6
-13 -6 -13 3 0 9 -4 9 -17 -1 -15 -12 -16 -12 -8 1 7 12 3 11 -18 -3 -25 -16
-26 -16 -21 0 4 12 -1 10 -14 -6 -25 -31 -24 -91 3 -122 11 -12 14 -19 7 -15
-11 7 -11 4 -1 -12 7 -12 15 -20 18 -19 16 3 50 -16 45 -25 -4 -6 1 -6 14 1
15 8 22 8 25 -2 4 -9 6 -9 6 1 1 10 6 10 21 2 14 -8 20 -8 20 0 0 7 6 8 19 0
14 -7 22 -7 26 0 5 8 11 7 21 -1 11 -9 14 -9 14 0 0 8 5 9 19 1 14 -7 22 -7
26 0 5 8 11 7 21 -1 11 -9 14 -9 14 0 0 8 5 9 19 2 10 -6 21 -8 25 -4 10 10
76 9 76 -2 0 -6 3 -6 8 0 9 14 45 14 54 0 5 -7 8 -7 8 1 0 5 11 10 25 10 14 0
25 -4 25 -9 0 -4 6 -5 13 0 6 4 23 8 37 9 14 0 24 5 23 11 -1 5 4 10 12 10 8
0 12 -4 9 -9 -3 -4 2 -5 10 -2 9 3 13 10 10 15 -5 8 10 13 29 10 5 -1 5 4 1
10 -3 6 -1 15 7 20 18 11 20 196 2 214 -6 7 -9 15 -6 19 4 3 1 6 -6 6 -16 0
-41 25 -41 42 0 8 -3 9 -8 3 -9 -13 -32 -17 -32 -6 0 5 -10 7 -22 3 -14 -3
-19 -2 -14 6 8 13 9 13 -68 14 -30 0 -59 -3 -65 -6 -6 -4 -11 -4 -11 1 0 7
-73 9 -90 2 -3 -1 -9 0 -15 1 -36 7 -95 5 -95 -4 0 -6 -4 -6 -11 1 -6 6 -17 9
-24 7 -6 -3 -18 2 -25 11 -15 18 -22 77 -8 69 4 -3 11 1 14 10 3 8 14 13 25
11 10 -2 19 1 19 7 0 7 4 7 13 0 8 -7 18 -7 27 -2 8 5 21 5 30 0 9 -5 22 -5
30 0 8 5 18 6 23 3 15 -9 57 -10 57 -1 0 5 9 4 20 -2 15 -8 20 -8 20 1 0 8 5
7 17 -2 9 -8 17 -13 17 -11 1 2 9 0 19 -3 10 -4 17 -18 17 -34 0 -20 2 -23 10
-11 5 8 10 10 10 5 0 -11 145 -13 157 -2 9 10 10 87 1 87 -4 0 -10 11 -14 25
-3 14 -10 23 -14 20 -4 -3 -10 2 -14 10 -3 8 -10 15 -16 15 -6 0 -8 -5 -4 -12
4 -6 -4 -3 -18 8 -14 10 -23 24 -20 29 3 6 -2 4 -11 -4 -9 -7 -17 -9 -17 -4 0
5 -15 8 -32 6 -80 -8 -98 -8 -102 2 -3 7 -7 7 -13 0 -9 -12 -83 -15 -83 -3 0
4 -10 4 -22 -1 -13 -5 -32 -5 -43 -1 -11 4 -32 4 -46 0 -15 -4 -32 -4 -40 0
-7 5 -21 4 -31 -1 -13 -7 -18 -6 -18 3 0 10 -2 10 -9 0 -10 -17 -21 -17 -31
-3 -4 7 -12 1 -20 -16z"/>
<path d="M215 800 c-4 -6 -10 -8 -14 -6 -9 6 -8 -40 2 -50 4 -4 7 -16 7 -26 0
-11 3 -17 8 -15 4 3 16 -7 27 -22 12 -16 14 -22 4 -16 -8 6 -7 3 3 -7 10 -9
18 -21 18 -27 0 -7 7 -14 15 -17 8 -4 12 -11 8 -18 -3 -6 -2 -8 2 -3 5 4 19
-3 32 -15 17 -16 20 -24 11 -35 -8 -11 -7 -12 6 -7 10 4 18 0 22 -10 3 -9 10
-13 15 -10 5 3 6 -2 3 -10 -4 -9 1 -18 10 -22 9 -3 16 -13 16 -21 0 -8 4 -11
10 -8 6 3 10 0 10 -8 0 -8 8 -21 17 -28 14 -12 16 -12 8 0 -5 10 -4 12 3 7 7
-4 12 -14 12 -21 0 -9 6 -12 17 -8 10 4 14 2 9 -5 -3 -6 3 -13 14 -17 11 -3
25 -15 31 -26 6 -12 17 -18 24 -15 10 3 12 0 8 -11 -4 -11 -2 -14 5 -9 7 4 12
2 12 -4 0 -6 5 -8 10 -5 5 3 10 1 10 -5 0 -7 7 -10 15 -6 8 3 14 0 12 -6 -1
-7 4 -12 11 -13 7 0 16 -4 20 -10 4 -5 14 -11 22 -13 8 -2 16 -8 18 -13 2 -5
9 -9 15 -9 7 0 23 -9 37 -20 14 -11 34 -20 44 -20 10 0 25 -8 33 -18 8 -9 12
-11 8 -5 -4 9 -1 11 9 7 9 -3 13 -10 10 -15 -5 -9 25 -14 55 -9 9 1 12 -4 7
-16 -5 -14 -4 -15 9 -4 11 9 15 9 15 1 0 -7 4 -9 10 -6 6 3 10 1 10 -5 0 -6 4
-9 9 -5 5 3 12 1 16 -4 3 -6 21 -8 41 -7 31 3 33 2 22 -12 -10 -12 -10 -14 -1
-8 23 13 52 15 59 4 5 -7 2 -8 -6 -3 -8 5 -11 4 -7 -2 7 -11 52 -11 63 0 4 4
13 2 21 -4 7 -6 13 -8 13 -4 0 4 8 1 17 -6 15 -12 16 -12 10 6 -7 20 -7 20 8
1 8 -11 15 -14 15 -8 0 10 5 10 21 1 12 -6 19 -7 16 -2 -4 5 0 10 8 10 8 0 12
-3 10 -7 -2 -4 12 -6 30 -6 19 1 35 4 35 7 0 3 12 4 26 1 21 -4 25 -2 19 9 -8
12 -6 12 8 0 9 -7 17 -9 17 -4 0 5 7 10 15 10 8 0 15 -5 15 -11 0 -5 7 -1 16
10 8 10 13 14 10 8 -3 -7 1 -14 9 -17 9 -4 12 -1 8 9 -3 9 1 14 12 14 9 0 13
-4 10 -10 -7 -11 23 -2 42 13 7 5 20 6 29 3 11 -4 15 -2 11 8 -4 10 -1 13 8 9
8 -3 12 -10 9 -17 -3 -6 0 -4 8 5 7 9 19 14 27 11 9 -3 11 0 6 8 -6 10 -4 12
7 7 9 -3 21 0 28 6 10 9 11 9 6 -3 -4 -8 0 -6 8 4 11 14 16 16 16 6 0 -9 6 -6
16 8 13 19 19 21 30 11 12 -10 14 -10 12 0 -2 8 8 15 22 17 13 3 27 8 30 13 3
5 15 11 28 15 13 5 20 12 15 19 -4 8 -1 7 9 -1 14 -11 18 -10 30 7 8 12 18 18
21 14 4 -3 7 -1 7 5 0 7 7 12 16 12 9 0 12 5 8 12 -4 7 -3 8 4 4 6 -4 21 4 33
18 11 13 28 23 37 21 10 -1 26 8 38 20 11 12 29 27 40 34 16 11 16 12 1 7 -11
-3 -15 -2 -12 4 3 6 13 10 21 10 13 0 19 12 15 33 -1 5 3 6 9 2 14 -9 42 14
33 28 -3 6 -1 7 6 3 6 -4 14 0 17 8 3 9 10 13 15 10 5 -3 6 3 2 12 -4 12 -3
15 5 10 7 -4 12 -2 12 4 0 6 16 27 36 46 20 19 33 34 28 34 -5 0 -1 5 9 11 12
7 16 17 12 32 -5 17 -4 19 4 7 10 -13 15 -8 12 13 0 4 5 7 12 7 7 0 18 9 25
21 11 17 11 20 0 13 -7 -4 0 9 15 29 22 29 24 35 10 31 -16 -5 -15 -3 2 12 17
14 17 16 3 11 -12 -4 -18 -1 -18 8 0 9 -8 12 -25 9 -16 -3 -25 0 -25 8 0 10
-2 10 -8 1 -4 -7 -16 -10 -27 -9 -11 2 -26 -2 -34 -8 -11 -8 -13 -8 -8 1 4 6
3 14 -3 18 -5 3 -10 -2 -10 -11 0 -17 -1 -16 -13 1 -11 14 -16 15 -22 5 -6
-10 -9 -9 -16 1 -7 11 -9 11 -9 -1 0 -13 -1 -13 -10 0 -5 8 -10 10 -10 4 0 -6
-11 -10 -25 -9 -14 2 -25 -1 -25 -6 0 -6 -5 -7 -12 -3 -8 5 -9 2 -5 -9 3 -9 1
-19 -5 -23 -7 -4 -8 -3 -4 4 4 7 2 12 -3 12 -6 0 -11 -6 -11 -14 0 -8 -9 -21
-20 -29 -11 -8 -17 -17 -14 -20 4 -4 -1 -9 -10 -13 -9 -3 -16 -16 -17 -28 0
-11 -3 -15 -6 -8 -2 6 -9 12 -14 12 -6 0 -8 -4 -4 -10 3 -5 -3 -18 -14 -29
-11 -11 -16 -23 -13 -27 4 -4 -1 -4 -11 -1 -11 4 -16 3 -12 -3 3 -6 -1 -10
-10 -10 -10 0 -32 -15 -51 -34 -18 -18 -36 -31 -40 -27 -4 3 -4 -3 0 -13 6
-16 4 -17 -9 -6 -9 7 -15 9 -13 4 2 -5 -1 -10 -6 -11 -5 0 -13 -8 -18 -17 -5
-9 -14 -16 -20 -16 -6 0 -20 -8 -31 -17 -15 -13 -19 -14 -13 -3 4 8 0 6 -8 -4
-9 -11 -16 -16 -16 -10 0 5 -9 -2 -20 -16 -12 -15 -18 -18 -14 -7 8 23 -1 22
-25 -4 -13 -14 -21 -17 -26 -9 -5 8 -12 6 -22 -7 -8 -10 -11 -12 -7 -4 6 11 3
13 -12 6 -10 -4 -29 -10 -41 -12 -13 -3 -21 -9 -18 -13 2 -4 -7 -6 -20 -4 -14
1 -25 -2 -25 -8 0 -7 -5 -6 -14 1 -10 9 -16 9 -21 1 -4 -6 -12 -9 -18 -7 -7 2
-18 -3 -25 -12 -8 -9 -10 -10 -7 -3 9 18 -26 12 -41 -7 -9 -11 -12 -12 -19 -1
-5 9 -4 11 3 6 7 -4 12 -2 12 4 0 7 -7 9 -15 6 -8 -3 -22 -9 -30 -12 -9 -4
-15 -1 -15 7 0 11 -3 11 -10 -1 -7 -11 -10 -11 -10 -2 0 10 -5 10 -21 1 -12
-6 -19 -7 -16 -2 4 6 -10 10 -30 11 -20 1 -40 7 -45 14 -4 8 -8 8 -8 2 0 -6
-7 -11 -15 -11 -8 0 -15 3 -15 7 0 4 -15 6 -34 5 -19 0 -32 3 -30 7 3 4 -11 5
-31 4 -24 -3 -35 0 -35 10 0 8 -6 11 -15 8 -8 -4 -15 -1 -15 5 0 6 -3 10 -7
10 -25 -4 -43 2 -37 13 5 7 3 8 -5 4 -7 -5 -21 0 -33 11 -12 10 -18 13 -15 6
5 -8 1 -8 -17 0 -13 7 -22 16 -19 20 3 5 -4 6 -16 2 -15 -5 -21 -2 -21 10 0 9
-5 13 -10 10 -5 -3 -10 1 -10 9 0 10 -6 13 -15 10 -9 -4 -18 2 -24 17 -6 14
-10 17 -11 9 0 -12 -3 -11 -11 3 -5 9 -16 17 -23 17 -17 0 -56 34 -56 49 0 10
-13 15 -32 12 -5 0 -8 6 -8 14 0 8 -4 15 -10 15 -5 0 -10 7 -10 15 0 8 -4 15
-10 15 -5 0 -10 7 -10 15 0 9 -7 18 -15 21 -8 4 -13 10 -10 14 3 5 1 11 -5 15
-6 4 -7 11 -4 17 5 7 2 8 -5 4 -8 -5 -14 0 -18 13 -3 11 -9 18 -14 15 -5 -3
-9 0 -9 5 0 6 -5 11 -11 11 -5 0 -7 -6 -3 -12 6 -10 4 -10 -7 -2 -8 6 -24 10
-37 8 -13 -2 -21 0 -18 5 4 5 -2 8 -11 6 -10 -2 -18 -4 -18 -5 0 -1 -18 -3
-40 -6 -28 -2 -36 -1 -25 6 9 6 10 10 3 10 -6 0 -15 -5 -18 -10 -4 -7 -13 -7
-26 0 -14 8 -19 7 -19 -2 0 -8 -3 -9 -8 -3 -10 14 -30 17 -37 5z m1705 -244
c0 -2 -8 -10 -17 -17 -16 -13 -17 -12 -4 4 13 16 21 21 21 13z"/>
<path d="M2035 309 c-4 -6 -5 -12 -2 -15 2 -3 7 2 10 11 7 17 1 20 -8 4z"/>
</g>
</svg>
